<?xml version="1.0" encoding="UTF-8"?>
<svg id="Layer_1" data-name="Layer 1" xmlns="http://www.w3.org/2000/svg" viewBox="0 0 264 216.92">
  <defs>
    <style>
      .cls-1 {
        fill: #1b1a19;
        stroke-width: 0px;
      }
    </style>
  </defs>
  <g>
    <path class="cls-1" d="m48.39,158.76c-5.45,0-9.84,1.79-13.17,5.37l-1.79-4.39h-11.39v40.26h14.31v-21.55c0-4.8,3.01-7.97,7.48-7.97,3.66,0,6.34,2.76,6.34,6.43v23.1h14.31v-25.46c0-4.64-1.46-8.38-4.47-11.31-3.01-3.01-6.83-4.47-11.63-4.47Z"/>
    <g>
      <rect class="cls-1" y="141.13" width="14.31" height="14.31"/>
      <rect class="cls-1" y="159.74" width="14.31" height="40.26"/>
    </g>
    <path class="cls-1" d="m258.72,164.69c-3.5-3.97-7.97-5.92-13.42-5.92-4.89,0-8.87,1.54-11.97,4.7l-1.8-3.74h-11.37v57.19h14.3v-19.77c3.18,2.52,6.75,3.83,10.83,3.83,5.45,0,9.92-1.97,13.42-5.86,3.48-4,5.28-9.04,5.28-15.22s-1.8-11.31-5.28-15.22Zm-17.25,25.05c-4.32,0-7.24-3.25-7.24-7.71v-4.23c0-4.55,2.93-7.8,7.24-7.8,4.64,0,7.97,4.06,7.97,9.92s-3.33,9.83-7.97,9.83Z"/>
    <g>
      <path class="cls-1" d="m205.28,140.95c-4.64,0-8.13,3.42-8.13,8.21s3.5,8.13,8.13,8.13c4.88,0,8.21-3.5,8.21-8.13s-3.33-8.21-8.21-8.21Z"/>
      <rect class="cls-1" x="198.12" y="159.74" width="14.31" height="40.26"/>
    </g>
    <path class="cls-1" d="m138.43,164.69c-4.23-3.97-9.77-5.92-16.5-5.92s-12.2,1.94-16.52,5.92c-4.32,4-6.43,9.04-6.43,15.22s2.12,11.22,6.43,15.22c4.32,3.89,9.77,5.86,16.52,5.86s12.27-1.97,16.5-5.86c4.32-4,6.43-9.04,6.43-15.22s-2.12-11.31-6.43-15.22Zm-16.5,25.22c-4.89,0-8.31-4.15-8.31-10s3.42-10.09,8.31-10.09,8.38,4.15,8.38,10.09-3.5,10-8.38,10Z"/>
    <path class="cls-1" d="m93.12,153.15c1.3,0,2.85.16,4.72.49l1.79-10.57c-3.33-.9-6.67-1.3-10-1.3-4.47,0-8.13,1.3-10.98,3.9-2.77,2.6-4.15,6.02-4.15,10.33v3.74h-6.75v10.82h6.75v29.44h14.31v-29.44h8.3v-10.82h-8.3v-2.28c0-2.68,1.71-4.31,4.31-4.31Z"/>
    <path class="cls-1" d="m187.62,164.69c-3.48-3.97-7.97-5.92-13.42-5.92-4.15,0-7.71,1.28-10.81,3.8v-19.83h-14.32v57.25h11.39l1.8-3.74c3.08,3.16,7.07,4.72,11.95,4.72,5.45,0,9.94-1.97,13.42-5.86,3.5-4,5.3-9.04,5.3-15.22s-1.8-11.31-5.3-15.22Zm-17.22,25.05c-4.32,0-7.24-3.25-7.24-7.71v-4.23c0-4.55,2.93-7.8,7.24-7.8,4.62,0,7.95,4.06,7.95,9.92s-3.33,9.83-7.95,9.83Z"/>
  </g>
  <g>
    <path class="cls-1" d="m166.36,94.36c-6.57,6.56-19.4,10.47-34.35,10.47s-27.8-3.91-34.34-10.47c-6.56-6.57-10.49-19.4-10.49-34.35s3.93-27.78,10.49-34.34c6.55-6.57,19.4-10.49,34.34-10.49s27.78,3.93,34.35,10.49c6.54,6.57,10.47,19.4,10.47,34.34s-3.93,27.78-10.47,34.35Zm25.64-34.36c0-33.14-26.86-60-60-60s-60,26.86-60,60,26.86,60,60,60,60-26.86,60-60Z"/>
    <path class="cls-1" d="m144,51.53v16.94c0,1.96-1.58,3.53-3.51,3.53h-16.98c-1.94,0-3.51-1.57-3.51-3.53v-16.94c0-1.96,1.57-3.53,3.51-3.53h16.98c1.93,0,3.51,1.57,3.51,3.53Z"/>
    <path class="cls-1" d="m160.3,31.7c-4.68-4.68-15.78-7.7-28.3-7.7h0c-12.51,0-23.62,3.03-28.3,7.7-4.7,4.67-7.7,15.79-7.7,28.3s3,23.63,7.7,28.3c4.68,4.67,15.78,7.7,28.3,7.7h0c12.51,0,23.62-3.03,28.3-7.7,4.7-4.68,7.7-15.79,7.7-28.3s-3-23.63-7.7-28.3Zm-10.93,45.54c-.98.98-3.95,3.95-17.45,3.95s-16.49-2.96-17.45-3.95c-.98-.98-3.95-3.95-3.95-17.44s2.96-16.46,3.95-17.44c.96-.98,3.93-3.93,17.45-3.93s16.47,2.94,17.45,3.93c.97.98,3.93,3.95,3.93,17.44s-2.96,16.46-3.93,17.44Z"/>
  </g>
</svg>